<svg width="36" height="38" viewBox="0 0 36 38" fill="none" xmlns="http://www.w3.org/2000/svg">
<path d="M16.7822 21.7283L20.6821 17.6312C20.9098 17.3916 21.2187 17.2567 21.541 17.256H34.0685C34.3913 17.2559 34.7008 17.1211 34.9291 16.8813C35.1573 16.6415 35.2856 16.3163 35.2857 15.9772V1.27876C35.2856 0.939647 35.1573 0.614449 34.9291 0.374657C34.7008 0.134865 34.3913 0.000104909 34.0685 0L20.077 0C19.7543 0.000104909 19.4447 0.134865 19.2165 0.374657C18.9882 0.614449 18.86 0.939647 18.8599 1.27876V5.74435C18.8599 6.0835 18.7316 6.40875 18.5034 6.64857C18.2751 6.88838 17.9655 7.02311 17.6427 7.02311C17.4828 7.02316 17.3245 6.99013 17.1768 6.92588C17.029 6.86164 16.8948 6.76746 16.7817 6.64871C16.6687 6.52996 16.579 6.38897 16.5178 6.2338C16.4566 6.07863 16.4251 5.91231 16.4251 5.74435V1.27876C16.425 0.939784 16.2968 0.614706 16.0688 0.374937C15.8407 0.135167 15.5313 0.000314631 15.2087 0L1.21719 0C0.894402 0.000104909 0.584863 0.134865 0.356617 0.374657C0.128371 0.614449 9.98572e-05 0.939647 0 1.27876L0 15.978C0.000299481 16.317 0.128659 16.642 0.356883 16.8816C0.585107 17.1212 0.894533 17.2559 1.21719 17.256H15.2087C15.5312 17.2557 15.8404 17.1209 16.0685 16.8813C16.2965 16.6417 16.4248 16.3169 16.4251 15.978V11.2833C16.4251 11.1154 16.4565 10.9491 16.5176 10.794C16.5787 10.6388 16.6684 10.4978 16.7814 10.3791C16.8944 10.2603 17.0285 10.1661 17.1762 10.1019C17.3238 10.0376 17.4821 10.0045 17.6419 10.0045C17.8018 10.0045 17.9601 10.0375 18.1078 10.1018C18.2555 10.166 18.3897 10.2602 18.5027 10.3789C18.6157 10.4977 18.7054 10.6387 18.7666 10.7939C18.8277 10.949 18.8592 11.1153 18.8591 11.2833V14.7974C18.8591 14.9654 18.8277 15.1317 18.7665 15.2868C18.7054 15.442 18.6157 15.583 18.5027 15.7018L14.0608 20.3688C13.8326 20.6086 13.5231 20.7434 13.2004 20.7436H1.21719C0.894371 20.7436 0.584774 20.8783 0.356507 21.1181C0.128239 21.358 0 21.6832 0 22.0224L0 36.7212C0 37.0604 0.128239 37.3856 0.356507 37.6255C0.584774 37.8653 0.894371 38 1.21719 38H15.2087C15.5314 37.9998 15.8408 37.865 16.0689 37.6252C16.297 37.3854 16.4251 37.0602 16.4251 36.7212V32.0265C16.4251 31.6875 16.5533 31.3623 16.7815 31.1226C17.0097 30.8828 17.3192 30.7481 17.6419 30.7481C17.8017 30.7481 17.96 30.7811 18.1077 30.8453C18.2554 30.9095 18.3895 31.0037 18.5026 31.1224C18.6156 31.2411 18.7053 31.3821 18.7664 31.5372C18.8276 31.6923 18.8591 31.8586 18.8591 32.0265V36.7212C18.8591 37.0604 18.9873 37.3856 19.2156 37.6255C19.4439 37.8653 19.7535 38 20.0763 38H34.0678C34.3906 38 34.7002 37.8653 34.9285 37.6255C35.1567 37.3856 35.285 37.0604 35.285 36.7212V22.0224C35.285 21.8544 35.2535 21.6882 35.1923 21.533C35.1311 21.3779 35.0415 21.2369 34.9285 21.1181C34.8154 20.9994 34.6812 20.9052 34.5336 20.8409C34.3859 20.7767 34.2276 20.7436 34.0678 20.7436H20.077C19.7542 20.7436 19.4446 20.8783 19.2164 21.1181C18.9881 21.358 18.8599 21.6832 18.8599 22.0224V26.4876C18.8599 26.6555 18.8285 26.8218 18.7673 26.977C18.7062 27.1322 18.6165 27.2731 18.5035 27.3919C18.3904 27.5107 18.2562 27.6048 18.1085 27.6691C17.9608 27.7333 17.8025 27.7664 17.6427 27.7663C17.4828 27.7664 17.3244 27.7334 17.1767 27.6692C17.029 27.605 16.8947 27.5108 16.7816 27.392C16.6686 27.2733 16.5789 27.1323 16.5177 26.9771C16.4565 26.8219 16.4251 26.6555 16.4251 26.4876V22.6307C16.4257 22.2921 16.5542 21.9676 16.7822 21.7283Z" fill="black"/>
</svg>
